<svg version="1.1" id="Layer_1" xmlns="http://www.w3.org/2000/svg" xmlns:xlink="http://www.w3.org/1999/xlink" x="0px" y="0px"
	 width="100%" viewBox="0 0 1024 413" enable-background="new 0 0 1024 413" xml:space="preserve">
<path fill="#FFFFFF" opacity="1.000000" stroke="none" 
	d="
M651.000000,414.000000 
	C434.000000,414.000000 217.500000,414.000000 1.000000,414.000000 
	C1.000000,276.333344 1.000000,138.666672 1.000000,1.000000 
	C342.333344,1.000000 683.666687,1.000000 1025.000000,1.000000 
	C1025.000000,138.666672 1025.000000,276.333344 1025.000000,414.000000 
	C900.500000,414.000000 776.000000,414.000000 651.000000,414.000000 
M714.036499,239.024277 
	C710.013672,239.076599 705.990784,239.128922 701.049927,239.027390 
	C689.572754,238.772690 678.096497,238.348801 666.618347,238.292068 
	C611.852783,238.021393 557.086853,237.769379 502.320831,237.674698 
	C470.014557,237.618835 437.706757,237.752411 405.401428,238.016922 
	C378.942657,238.233551 352.486481,238.769730 325.105408,239.029068 
	C320.758240,239.076401 316.411041,239.123718 311.141479,239.034042 
	C307.373108,239.034042 303.604767,239.034042 299.836395,239.034042 
	C299.830658,239.598663 299.824921,240.163269 299.819183,240.727890 
	C303.911255,240.727890 308.003296,240.727890 312.850708,240.816742 
	C317.246582,240.804230 321.642426,240.791733 326.801453,240.896347 
	C340.607880,241.176193 354.413116,241.585251 368.220947,241.709824 
	C400.197388,241.998337 432.175018,242.305237 464.152283,242.320038 
	C514.289795,242.343231 564.428101,242.251251 614.564819,241.973602 
	C643.698608,241.812271 672.829773,241.193176 702.830811,240.958725 
	C706.857605,240.878418 710.884338,240.798096 715.824036,240.929413 
	C719.462830,240.929413 723.101685,240.929413 726.740479,240.929413 
	C726.704834,240.332199 726.669189,239.734970 726.633545,239.137756 
	C722.739441,239.137756 718.845398,239.137756 714.036499,239.024277 
M670.231445,124.957001 
	C668.022156,120.948982 665.749084,116.973648 663.661743,112.903091 
	C663.281616,112.161736 663.660034,111.031364 664.179077,110.573120 
	C668.534851,111.006325 672.104553,108.712021 672.870850,104.010231 
	C673.484558,100.244431 672.994812,96.298805 672.994812,92.125984 
	C664.367981,97.025612 661.708557,102.529922 663.184753,110.977577 
	C661.609619,109.703094 660.034485,108.428604 658.459412,107.154121 
	C658.771973,109.020622 659.747742,110.441093 660.436890,111.989143 
	C665.034241,122.315445 669.570435,132.668976 673.401794,143.330063 
	C666.758972,136.928802 659.715515,139.381256 652.402344,142.903748 
	C656.567078,145.237213 660.823669,147.530838 665.345825,148.340012 
	C669.085144,149.009094 673.464783,148.432709 674.729797,143.245804 
	C683.064880,169.783249 682.517395,195.509064 667.619751,220.110382 
	C669.298279,219.007751 670.737854,217.815628 671.434875,216.285278 
	C674.104614,210.423584 676.780212,204.542053 678.977478,198.494904 
	C680.683105,193.800735 681.680542,188.849243 683.667786,184.359573 
	C684.842590,185.298309 685.965698,186.964737 687.200867,187.052353 
	C693.185608,187.476791 698.372070,182.447250 700.810852,174.337097 
	C692.972046,173.913788 688.441406,176.380707 682.367249,183.263565 
	C684.396301,169.001755 681.991699,155.321381 677.012268,141.962234 
	C674.905640,136.310669 672.914551,130.616074 671.669678,124.941879 
	C675.218872,127.455055 677.758911,124.903343 679.700684,122.738083 
	C683.300720,118.723709 683.739685,113.649094 683.371216,108.290207 
	C674.196167,112.087708 671.437317,115.892143 670.231445,124.957001 
M352.606415,126.602997 
	C350.894318,130.923325 349.215485,135.257187 347.464722,139.561768 
	C337.350891,164.428574 338.685303,188.883759 350.236359,212.901566 
	C351.565796,215.665833 353.681580,218.051895 355.432770,220.613327 
	C356.280762,219.526138 356.273285,219.026306 356.041260,218.674698 
	C345.815521,203.181107 342.465881,186.037384 343.996338,167.790573 
	C344.272919,164.493195 345.317932,161.260269 346.673279,158.350189 
	C348.600586,159.568008 350.442169,161.641830 352.471069,161.845062 
	C358.867188,162.485672 363.492767,158.871597 367.894806,154.407913 
	C358.013031,151.007874 353.522125,151.804306 345.342926,157.379471 
	C346.200195,153.756149 346.978516,150.110596 347.987610,146.530060 
	C348.169006,145.886368 349.301727,145.510788 350.075378,145.710831 
	C356.431793,150.227417 364.301392,148.954636 370.981598,142.234131 
	C363.963806,138.467697 356.995728,138.562897 349.646210,141.281326 
	C354.288513,130.626007 358.930817,119.970695 363.521149,109.434669 
	C362.887909,109.329796 361.916718,109.168953 360.553375,108.242302 
	C361.929962,100.315269 356.476898,96.386070 350.673218,92.303970 
	C350.392639,96.898491 350.214722,101.540588 351.491333,105.740570 
	C352.504547,109.073982 355.070984,112.271126 360.517151,111.328041 
	C357.994080,115.556000 355.471008,119.783958 352.329681,123.454193 
	C352.236603,116.091774 348.326447,111.187599 340.436035,108.537003 
	C339.344055,119.380501 343.503418,125.636101 352.606415,126.602997 
M550.262451,292.983612 
	C545.040649,295.118866 540.394226,297.915955 538.490295,303.672791 
	C537.593811,306.383636 537.673279,309.854614 533.221252,309.342773 
	C532.897217,309.305511 532.047729,310.847168 532.076599,311.631409 
	C532.101929,312.319824 532.902893,313.145538 533.572449,313.598846 
	C534.273682,314.073639 535.226440,314.176941 536.085999,314.447906 
	C534.681396,323.527161 533.280640,332.224792 532.001953,340.940308 
	C530.535156,350.938049 532.863770,353.082642 543.007446,350.885895 
	C545.568420,350.331299 548.000000,349.113892 550.440491,348.081635 
	C554.922363,346.185944 557.060974,342.795746 556.720398,337.707947 
	C554.125000,339.645935 551.811157,341.796021 549.125183,343.266205 
	C546.161194,344.888519 543.637268,343.107605 544.118042,339.786194 
	C545.373169,331.115967 546.890198,322.483673 548.284058,313.950867 
	C556.992188,313.317505 556.992188,313.317505 556.237305,309.241638 
	C553.963623,309.133514 551.668274,309.024353 549.295166,308.911499 
	C549.864075,303.440918 550.407776,298.212982 550.942566,292.843018 
	C550.942566,292.843018 551.151917,292.914429 551.151917,292.914429 
	C551.151917,292.914429 550.986084,292.948700 550.262451,292.983612 
M631.081726,182.373016 
	C631.165405,183.948944 631.249146,185.524887 631.327698,187.003372 
	C633.929443,187.003372 636.005859,187.003372 638.060364,187.003372 
	C639.457458,152.185364 621.709351,106.104652 578.562012,80.694389 
	C535.080017,55.087013 490.529694,55.170307 447.655914,81.720978 
	C409.191040,105.541290 390.756622,141.761673 388.929993,187.094940 
	C391.602112,187.094940 393.697723,187.094940 395.664246,187.094940 
	C396.977081,178.086655 397.678375,169.113129 399.649078,160.427612 
	C412.491272,103.826866 467.560608,62.303951 530.464966,70.741592 
	C584.770630,78.025856 629.201050,126.327110 631.081726,182.373016 
M538.842896,182.586029 
	C546.060730,191.966476 556.711609,196.232300 566.507812,201.563065 
	C563.259033,195.437775 559.446533,189.611008 556.928711,183.270096 
	C545.102356,153.486267 533.659851,123.550186 521.962952,93.714439 
	C521.279297,91.970573 519.636902,89.382919 518.320618,89.308372 
	C510.816620,88.883385 503.276184,89.102188 494.661774,89.102188 
	C499.677948,93.557472 499.543274,97.662811 497.333435,102.424850 
	C494.611603,108.290222 492.487549,114.432533 490.092834,120.450256 
	C485.949432,130.862213 485.945465,130.860641 497.150513,135.644363 
	C501.034088,125.737816 504.918488,115.829140 509.187225,104.940109 
	C514.753784,120.040581 519.772156,133.932083 524.998352,147.744934 
	C529.338623,159.216095 533.923462,170.594696 538.842896,182.586029 
M577.710693,209.916168 
	C568.517273,205.304504 559.024048,201.199234 550.195435,195.971527 
	C533.839539,186.286774 522.120972,171.669983 510.781403,156.817383 
	C498.846985,141.185638 483.408356,130.832718 464.484924,125.642746 
	C462.626587,125.133072 460.656738,125.029984 458.738678,124.738174 
	C479.892700,133.285202 491.588226,150.490540 501.318146,169.641891 
	C504.251587,175.415710 507.383484,181.108200 510.755493,186.635986 
	C520.439514,202.511169 533.728516,214.301178 552.369507,217.390152 
	C564.871033,219.461792 577.814148,218.952774 590.567139,219.369186 
	C594.222046,219.488525 597.903015,218.808960 601.572083,218.495697 
	C601.554565,218.243195 601.537109,217.990707 601.519592,217.738205 
	C593.832947,215.204681 586.146240,212.671158 577.710693,209.916168 
M127.870628,339.607513 
	C129.807755,327.287476 131.725006,314.964264 133.689972,302.648682 
	C134.753967,295.980042 133.707932,293.808777 127.061180,292.387177 
	C115.794167,289.977448 104.515717,290.371979 93.635582,294.440613 
	C90.930946,295.451996 88.276321,297.288177 86.289444,299.396240 
	C80.693321,305.333649 83.086967,314.835388 90.969322,318.007141 
	C90.578270,316.401978 90.219734,314.976746 89.884476,313.546082 
	C88.417809,307.287079 90.423080,302.190948 96.376472,300.214844 
	C102.200394,298.281738 108.436897,297.591553 115.287323,296.193542 
	C108.559937,307.123230 102.755836,316.974792 96.504044,326.533508 
	C93.336647,331.376343 89.783073,336.120667 85.667709,340.159119 
	C75.355293,350.278778 63.061531,349.361053 54.613010,338.327728 
	C49.583836,344.862946 51.780907,352.090790 59.569836,353.993713 
	C69.217827,356.350861 78.333099,354.565521 85.896034,348.262451 
	C90.555023,344.379639 94.064728,339.131714 98.198662,334.595306 
	C99.249474,333.442169 100.662437,331.939301 101.996201,331.846191 
	C106.771858,331.512787 111.584930,331.715576 116.725533,331.715576 
	C116.323753,334.577057 116.025223,336.859924 115.679871,339.135681 
	C114.175392,349.049713 112.924599,351.923462 127.017113,350.124115 
	C129.221466,349.842651 131.463287,348.751282 133.375137,347.540680 
	C136.243164,345.724548 139.105286,343.602448 137.538391,339.300598 
	C134.264252,340.570953 131.507568,344.905487 127.870628,339.607513 
M317.550812,347.111816 
	C319.197815,346.044159 320.844818,344.976501 322.814728,343.699493 
	C324.948517,348.875946 327.954590,352.031860 334.000763,350.100403 
	C341.131409,347.822540 344.512512,344.218689 344.692749,338.205658 
	C342.166565,339.575317 339.488403,341.027374 335.891449,342.977570 
	C339.156860,322.057831 342.181183,302.682465 345.352173,282.367706 
	C338.811157,285.404053 333.426575,287.903595 327.653992,290.583252 
	C332.111938,295.719147 328.966858,300.928253 328.487579,306.023438 
	C328.408508,306.864044 326.916473,308.015961 325.905792,308.236237 
	C323.483337,308.764099 320.949951,308.756989 318.476990,309.083923 
	C311.274231,310.036224 304.130951,312.218597 301.108887,319.169586 
	C298.129211,326.023132 296.391998,333.604279 295.327240,341.040527 
	C294.549011,346.475983 298.503326,350.500031 304.052002,350.427277 
	C308.360596,350.370758 312.646362,348.571777 317.550812,347.111816 
M449.756744,342.679626 
	C447.098175,342.729218 444.419830,343.011749 441.784546,342.787567 
	C431.125732,341.880798 429.275299,339.685974 429.908752,329.204529 
	C429.920807,329.004944 429.541901,328.781769 429.166718,328.376648 
	C425.191803,331.376953 421.801453,334.867126 422.445282,340.247437 
	C423.097961,345.702057 427.572449,347.693237 432.180054,349.054871 
	C442.584412,352.129578 452.667358,351.142944 462.048676,345.697571 
	C468.332947,342.049866 472.649231,336.753876 473.753876,329.197632 
	C475.317749,318.500458 476.944275,307.808167 478.829254,297.164307 
	C479.599396,292.815704 477.699341,291.170013 473.890625,291.243958 
	C466.087219,291.395508 458.166748,291.084351 450.531830,292.371490 
	C445.522675,293.215973 440.447510,295.860077 436.262085,298.887451 
	C429.930756,303.466980 429.749054,311.542267 435.114929,317.264435 
	C437.060730,319.339417 439.394318,321.050781 441.550964,322.928040 
	C440.455902,314.923676 435.299469,307.432129 443.288116,300.320404 
	C450.358368,294.026215 458.430542,296.476746 466.775238,296.140045 
	C464.835693,308.284912 462.972504,319.763824 461.177521,331.253418 
	C459.847748,339.765289 458.632477,341.121643 449.756744,342.679626 
M395.817719,344.311066 
	C395.817719,343.345490 395.817719,342.379883 395.817719,341.906281 
	C393.194672,342.767548 390.619110,343.613220 387.275696,344.710999 
	C389.232605,332.194489 390.972321,321.066956 392.735535,309.789337 
	C383.980164,309.789337 375.274323,308.398956 367.218719,310.095612 
	C353.002838,313.089722 344.677460,327.902618 347.400726,342.415985 
	C348.481659,348.176971 351.506378,350.995178 357.421143,350.555023 
	C360.778137,350.305206 364.127563,348.935181 367.306335,347.641754 
	C369.716003,346.661316 371.850494,345.004700 374.093994,343.657043 
	C379.734070,352.438293 388.951111,352.901550 395.817719,344.311066 
M236.987503,314.798462 
	C237.214401,313.182770 237.441299,311.567078 237.757462,309.315735 
	C231.985626,309.315735 226.532684,309.200989 221.087524,309.357300 
	C217.632004,309.456512 213.945984,309.276672 210.781082,310.399506 
	C197.508255,315.108398 190.445419,327.324341 192.288864,341.511902 
	C193.145920,348.108002 196.905777,351.411621 203.548630,350.558319 
	C206.743408,350.147949 209.845551,348.631012 212.858032,347.314087 
	C215.097321,346.335236 217.124817,344.871887 219.240387,343.628021 
	C223.475250,350.730927 226.371552,352.170990 233.090500,349.790436 
	C236.852463,348.457520 242.089691,347.840607 240.814651,341.965454 
	C238.224380,342.782471 235.658386,343.591858 232.285706,344.655670 
	C233.968536,334.042114 235.426346,324.847687 236.987503,314.798462 
M702.728394,349.400635 
	C706.204102,347.526154 709.679871,345.651642 713.134583,343.788483 
	C717.476624,350.723724 719.911133,352.034882 726.423096,349.915527 
	C730.393555,348.623260 735.695374,348.008698 734.788513,341.835968 
	C732.215210,342.727570 729.666870,343.610474 726.205505,344.809753 
	C727.265137,337.892761 728.108948,332.349823 728.964478,326.808685 
	C729.837952,321.151855 730.722900,315.496826 731.684204,309.317993 
	C727.708313,309.317993 724.412720,309.248474 721.121216,309.333984 
	C715.994995,309.467194 710.612305,308.757812 705.795044,310.075348 
	C690.693115,314.205719 685.683472,324.683502 686.367249,342.217407 
	C686.583862,347.773499 690.020813,350.439209 695.648743,350.622406 
	C697.761108,350.691193 699.896179,350.060120 702.728394,349.400635 
M942.404419,342.362671 
	C940.459839,343.077820 938.515259,343.792938 935.814392,344.786255 
	C937.761169,332.254669 939.502319,321.046875 941.325256,309.312714 
	C933.899231,309.312714 927.276978,309.299866 920.654846,309.315704 
	C910.301697,309.340485 900.980347,315.783722 898.125305,325.712738 
	C896.726135,330.578949 896.247070,335.814301 896.085815,340.905853 
	C895.878906,347.439301 899.430969,350.963684 905.960815,350.534943 
	C909.456421,350.305420 912.929504,348.736450 916.264099,347.400696 
	C918.501709,346.504333 920.478516,344.956787 922.572021,343.700623 
	C922.151245,344.337524 921.730530,344.974426 921.309753,345.611328 
	C923.618530,347.136627 925.741638,349.193848 928.274353,350.078094 
	C933.806580,352.009521 938.719971,349.463928 943.208496,346.556610 
	C943.973145,346.061340 946.563782,343.295319 942.404419,342.362671 
M509.787781,194.653458 
	C508.179626,192.132706 506.425568,189.692047 504.989655,187.076721 
	C499.957764,177.911743 495.210968,168.585526 489.995697,159.527924 
	C487.482483,155.163086 484.165131,151.261261 480.671539,146.397430 
	C477.774445,153.478973 475.674988,159.442978 472.948212,165.104858 
	C467.054626,177.342270 464.946930,191.437408 454.915558,201.653931 
	C463.045990,201.653931 471.010132,201.653931 477.748138,201.653931 
	C476.852875,198.521484 474.580933,195.019363 475.327606,192.367111 
	C477.757080,183.737534 481.290375,175.418747 484.148407,167.660126 
	C491.083160,177.758331 497.458862,188.247452 505.052582,197.764725 
	C512.793213,207.466095 522.997498,214.356781 535.091187,218.261642 
	C525.423584,212.007736 516.737244,204.770279 509.787781,194.653458 
M508.037537,309.527954 
	C504.174011,310.978973 500.310455,312.429962 496.191650,313.976868 
	C496.046387,312.482025 495.910248,311.080902 495.726196,309.187073 
	C490.199310,311.429688 485.053589,313.517639 480.424683,315.395874 
	C484.298553,327.731720 477.767822,338.734253 478.308105,350.401794 
	C482.048340,350.401794 485.795319,350.401794 489.767365,350.401794 
	C491.121216,342.170807 492.437744,334.143250 493.763031,326.117096 
	C494.786469,319.918945 501.619690,314.413025 508.561340,314.576843 
	C507.127655,323.622070 505.721313,332.614441 504.272614,341.599976 
	C502.917175,350.006714 504.813446,351.888763 513.369141,350.473633 
	C514.673950,350.257843 515.998901,349.968872 517.220398,349.478943 
	C522.312378,347.436432 524.853394,343.837219 524.411011,339.837769 
	C521.930603,341.098389 519.340271,342.414856 515.937256,344.144379 
	C517.402100,334.960236 518.717834,327.108887 519.890076,319.236206 
	C520.840820,312.850677 519.722656,311.293793 513.260071,309.762085 
	C511.828278,309.422729 510.302582,309.479370 508.037537,309.527954 
M860.332642,336.044891 
	C860.868164,332.764862 861.450317,329.491638 861.929138,326.203308 
	C862.851074,319.872742 870.237549,314.055359 876.840820,314.594482 
	C875.272705,324.438721 873.657410,334.268738 872.157532,344.116333 
	C871.322144,349.601410 872.129089,350.593292 877.742004,350.620300 
	C880.194946,350.632141 882.918701,350.525085 885.048584,349.496765 
	C889.112122,347.534760 893.661804,345.502686 892.979736,339.560577 
	C890.409790,340.969360 887.945312,342.320343 884.209961,344.368011 
	C885.803894,334.175873 887.310852,325.547028 888.369995,316.863525 
	C888.566650,315.251343 887.427795,312.779175 886.098572,311.807068 
	C881.906738,308.741455 877.157043,308.562653 872.382385,310.692841 
	C870.106812,311.708069 867.854858,312.776978 865.566589,313.762085 
	C865.185242,313.926270 864.672424,313.785187 864.153076,313.785187 
	C864.153076,312.322540 864.153076,311.067535 864.153076,309.086334 
	C858.482544,311.390991 853.248779,313.518158 849.292114,315.126251 
	C849.566406,319.419891 850.250488,322.588989 849.869934,325.624542 
	C848.842590,333.817932 847.361938,341.954498 846.017029,350.390106 
	C850.264648,350.390106 853.997803,350.390106 858.062256,350.390106 
	C858.785522,345.739349 859.472656,341.321136 860.332642,336.044891 
M662.739746,314.876251 
	C664.074768,314.590271 665.409851,314.304321 667.306824,313.897980 
	C665.591064,324.651764 663.930603,334.620239 662.477051,344.618774 
	C662.245178,346.213684 662.871643,349.376495 663.219055,349.393341 
	C667.563171,349.604645 672.174072,350.213745 676.228027,349.037415 
	C681.469971,347.516296 683.142456,344.205780 683.196106,339.652924 
	C680.749634,340.936890 678.184753,342.282990 674.572510,344.178772 
	C675.998474,334.977905 677.125916,327.278503 678.401062,319.603638 
	C679.501038,312.983307 678.397156,310.894104 671.685486,309.771088 
	C668.899048,309.304810 665.786438,309.976166 662.973938,310.711090 
	C660.298645,311.410248 657.821289,312.866913 654.846313,314.170349 
	C654.736633,312.452362 654.649719,311.091003 654.524475,309.129150 
	C648.900269,311.385071 643.730347,313.458771 639.038818,315.340576 
	C642.863647,327.521698 636.377014,338.639923 636.938965,350.687408 
	C639.305664,350.687408 641.774292,350.485046 644.195862,350.735931 
	C647.629211,351.091705 648.783264,349.686340 649.131287,346.339142 
	C649.697144,340.897980 651.389832,335.538605 651.605347,330.104980 
	C651.902039,322.621277 655.992065,318.335571 662.739746,314.876251 
M157.424637,332.134338 
	C157.737976,330.165771 158.003342,328.188110 158.373474,326.230286 
	C159.561081,319.948517 166.029205,314.638214 173.084335,314.377716 
	C172.987335,315.681335 172.982559,316.986542 172.780579,318.260468 
	C171.349030,327.289795 169.800873,336.301788 168.498383,345.349274 
	C168.298080,346.740601 169.142456,349.556610 169.548630,349.565063 
	C173.909637,349.656281 178.553665,350.157684 182.568512,348.851288 
	C186.420135,347.598053 190.253540,344.789612 189.578278,339.530304 
	C186.911514,340.940369 184.301666,342.320374 180.633667,344.259857 
	C182.192749,334.489929 183.377060,326.124969 184.922180,317.827148 
	C185.587357,314.254944 184.547302,312.327789 181.267136,310.839661 
	C176.997498,308.902679 172.920624,308.951324 168.740387,310.750946 
	C166.602798,311.671234 164.505066,312.684204 162.366089,313.601044 
	C161.982513,313.765503 161.485458,313.665192 160.758636,313.701050 
	C160.758636,312.266327 160.758636,311.001801 160.758636,309.054932 
	C155.047150,311.374695 149.810104,313.501770 145.455765,315.270325 
	C148.610046,327.825592 142.655869,339.010712 142.944687,350.683655 
	C145.572845,350.683655 147.745514,350.488342 149.869110,350.727966 
	C153.327545,351.118225 155.011169,350.138702 155.239899,346.295990 
	C155.505478,341.834473 156.528519,337.417999 157.424637,332.134338 
M257.776825,349.222931 
	C259.036804,341.337372 260.214386,333.437439 261.583984,325.570953 
	C262.601227,319.728180 269.704285,314.384399 276.256653,314.594482 
	C274.820374,323.976013 273.357727,333.311554 271.970856,342.658386 
	C270.889191,349.948334 272.229767,351.332367 279.691132,350.639557 
	C281.333862,350.487030 283.005127,350.153595 284.557526,349.604523 
	C289.708282,347.782837 292.535065,343.934021 292.206024,339.701813 
	C289.768372,341.039398 287.242828,342.425171 283.694122,344.372406 
	C285.075287,335.433167 286.166931,327.733276 287.477600,320.070862 
	C288.677368,313.057037 286.929352,310.160126 279.793945,309.555054 
	C276.804657,309.301636 273.626373,310.416870 270.639984,311.277557 
	C268.468048,311.903503 266.470032,313.132812 264.000397,314.275391 
	C263.853638,312.393158 263.746704,311.021393 263.599213,309.129700 
	C258.029877,311.376862 252.858810,313.463348 248.227463,315.332031 
	C252.064880,327.639160 245.513977,338.799347 246.057831,350.946320 
	C249.957947,350.615479 253.685852,350.299255 257.776825,349.222931 
M843.273193,321.348938 
	C843.137634,312.070282 840.721069,309.513275 831.507751,309.136200 
	C828.354614,309.007172 825.179810,308.983978 822.033386,309.191559 
	C811.242310,309.903534 804.983276,315.008209 802.014221,325.458862 
	C801.335632,327.847107 800.846985,330.300354 800.433533,332.751129 
	C798.137573,346.360321 801.021484,349.919739 814.759033,350.540771 
	C831.640503,351.303925 839.217224,345.276398 842.300903,328.581451 
	C842.692383,326.462128 842.909546,324.310547 843.273193,321.348938 
M591.921753,327.344940 
	C593.364868,323.021942 595.317566,318.787598 596.090210,314.347900 
	C596.710083,310.786041 594.482971,308.032104 590.731628,307.019531 
	C581.821350,304.614319 570.109802,309.007050 565.318970,316.803711 
	C560.656738,324.391144 559.407227,332.947052 559.206360,341.640930 
	C559.120056,345.376251 560.774963,348.606140 564.755127,349.581726 
	C573.686890,351.770996 582.569214,351.592499 591.109497,347.872925 
	C595.991943,345.746429 596.740967,344.066437 596.272949,338.073578 
	C594.845032,339.162109 593.545593,340.151672 592.247192,341.142578 
	C587.759888,344.567352 582.897583,347.188080 577.086243,345.822723 
	C575.326355,345.409210 573.936096,343.422394 572.376526,342.156219 
	C573.650513,340.732330 574.712097,339.003601 576.237549,337.940491 
	C581.224548,334.465118 586.380493,331.232239 591.921753,327.344940 
M953.827026,350.403290 
	C967.994446,351.699890 974.789978,347.654449 975.107544,337.250244 
	C972.842041,339.106659 970.945068,340.974792 968.738708,342.344879 
	C967.524414,343.098938 965.452454,343.667633 964.389282,343.117554 
	C963.416626,342.614258 962.719910,340.428528 962.873596,339.096344 
	C963.539978,333.321350 964.559387,327.586975 965.455750,321.838654 
	C967.468689,308.931061 969.484619,296.023956 971.629456,282.283630 
	C965.566589,285.218414 960.296814,287.769287 956.205200,289.749878 
	C956.536072,293.651672 957.194031,296.501770 956.922729,299.260498 
	C956.402832,304.546234 955.355103,309.780090 954.526184,315.035431 
	C952.694275,326.650513 950.862183,338.265564 949.001587,350.062073 
	C950.639221,350.170013 951.787720,350.245758 953.827026,350.403290 
M764.419312,309.107605 
	C762.781677,309.107605 761.144104,309.107605 759.230896,309.107605 
	C760.029541,303.505157 760.761719,298.369446 761.599121,292.494965 
	C755.442505,295.073456 750.609375,297.647461 748.664001,303.677612 
	C747.814331,306.311279 747.913208,309.960754 743.369812,309.330933 
	C743.037354,309.284851 742.135742,310.799072 742.147034,311.578491 
	C742.157104,312.272949 742.944397,313.130310 743.612305,313.593140 
	C744.312073,314.078094 745.278198,314.178741 746.281189,314.495850 
	C744.595642,325.011444 743.082458,335.204834 741.271606,345.345123 
	C740.628540,348.946014 741.678833,350.665344 745.275574,351.155640 
	C752.479675,352.137634 758.912170,350.129456 764.222961,345.481689 
	C766.020630,343.908447 766.371948,340.682587 767.384277,338.211975 
	C764.040161,339.821655 761.825256,341.888062 759.245728,343.277618 
	C756.330688,344.847931 753.797913,343.001404 754.273621,339.771332 
	C755.528992,331.247223 756.980896,322.752014 758.446350,313.676880 
	C760.550049,313.676880 762.521423,313.857727 764.432678,313.597473 
	C765.333130,313.474823 766.764648,312.542053 766.800720,311.910339 
	C766.851990,311.013092 765.838196,310.054993 764.419312,309.107605 
M615.890686,338.326660 
	C615.895569,337.161469 615.857544,335.994263 615.911682,334.831360 
	C616.508850,321.995544 618.721069,317.736694 633.812012,314.958008 
	C634.253601,314.876709 634.654663,314.575684 635.256958,314.290924 
	C635.728760,310.805725 636.200562,307.320374 636.875610,302.333923 
	C630.318604,306.288727 624.979614,309.508850 619.233032,312.974854 
	C619.124695,310.618683 619.063232,309.281891 618.978333,307.435089 
	C613.264526,310.300476 608.108521,312.886139 603.665894,315.114014 
	C607.271545,328.211151 600.593445,339.970032 600.966614,352.591553 
	C606.583008,350.459229 612.060120,348.379791 617.080322,346.473816 
	C616.617310,343.650208 616.253906,341.434235 615.890686,338.326660 
M773.158936,333.538269 
	C772.717590,336.665039 772.534180,339.855988 771.775452,342.903748 
	C770.594849,347.646149 773.548767,349.480133 777.083862,350.141937 
	C780.094238,350.705475 783.435242,350.508087 786.449097,349.836212 
	C792.527039,348.481293 796.673706,343.697388 796.278931,338.883820 
	C794.436584,340.313507 792.885498,341.882111 791.021362,342.844025 
	C789.622925,343.565613 787.406372,344.225861 786.315674,343.595581 
	C785.203491,342.952850 784.410645,340.643646 784.547241,339.162689 
	C784.958252,334.706238 785.927795,330.303650 786.609558,325.869293 
	C787.550354,319.749786 788.427307,313.620483 789.459290,306.631042 
	C783.349365,309.230164 778.254761,311.397430 774.278564,313.088867 
	C774.528870,317.094025 775.012085,320.229431 774.838135,323.327972 
	C774.662292,326.461670 773.835693,329.558868 773.158936,333.538269 
M367.408875,101.425896 
	C367.953064,106.698296 371.498627,104.400482 373.557495,103.377090 
	C379.723419,100.312248 381.154053,94.461662 381.861359,88.017326 
	C372.603149,91.026360 369.063812,94.194916 367.408875,101.425896 
M366.040222,191.758255 
	C355.078827,191.891281 350.605804,194.548615 349.826935,201.390213 
	C356.346252,204.357971 367.374359,199.243713 368.648407,192.590973 
	C368.677765,192.437653 367.444122,192.042450 366.040222,191.758255 
M371.804871,111.777847 
	C368.941742,112.882591 366.078583,113.987343 362.830231,115.240730 
	C368.685394,122.521912 376.589233,122.437607 385.945435,115.253830 
	C380.921234,113.944069 376.747986,112.856133 371.804871,111.777847 
M329.027222,190.771744 
	C327.264069,190.636917 325.500885,190.502090 323.559082,190.353592 
	C326.934631,199.899185 334.302887,204.071457 341.750610,200.996170 
	C341.057983,194.825043 338.047729,192.266525 329.027222,190.771744 
M681.880432,128.418442 
	C678.897949,131.645599 677.208923,135.115891 679.511414,139.418045 
	C687.938110,138.755630 692.783203,131.888535 691.304810,122.290703 
	C688.184021,124.256424 685.286011,126.081848 681.880432,128.418442 
M640.951294,117.926224 
	C650.893738,122.346046 655.765930,121.892815 659.896606,116.163857 
	C654.890686,110.154564 645.196106,110.318680 638.650818,116.551086 
	C639.217224,116.906143 639.775085,117.255836 640.951294,117.926224 
M696.506287,190.466415 
	C693.486755,191.191467 690.288940,191.511841 687.492432,192.743271 
	C683.938782,194.307983 681.099670,196.835907 682.134583,201.435150 
	C690.409668,203.325867 697.481018,198.964432 699.714355,190.610474 
	C698.883911,190.545761 698.089844,190.483887 696.506287,190.466415 
M673.948425,201.407486 
	C672.649719,193.750244 664.770386,190.037781 655.029419,192.493576 
	C660.043396,201.116455 665.816772,204.096802 673.948425,201.407486 
M676.339172,170.195618 
	C670.810120,164.619370 664.275452,165.596222 656.821960,166.956909 
	C658.799744,168.897842 660.097229,170.384064 661.605957,171.610413 
	C665.567322,174.830399 669.825317,177.070572 675.221497,175.453110 
	C678.125244,174.582703 678.412292,173.052917 676.339172,170.195618 
M340.519012,147.989029 
	C337.672699,142.277908 332.393188,140.558334 326.576050,138.770584 
	C328.059906,150.056137 333.092438,155.224869 341.149750,153.921280 
	C341.044800,152.192535 340.937164,150.419205 340.519012,147.989029 
M652.063538,133.652802 
	C660.694763,135.968658 664.173950,135.093475 666.976685,129.901428 
	C661.581116,124.242165 653.348938,124.437851 645.485901,130.645996 
	C647.548950,131.588837 649.454590,132.459763 652.063538,133.652802 
M337.226349,137.363373 
	C339.627991,137.875626 342.029663,138.387894 344.431305,138.900146 
	C344.343109,136.528534 344.940338,133.845566 344.032196,131.846451 
	C341.740082,126.800774 337.057770,124.575089 332.227386,122.841705 
	C331.655884,123.232094 331.084381,123.622482 330.512878,124.012871 
	C332.567291,128.297531 334.621704,132.582184 337.226349,137.363373 
M375.693848,128.701599 
	C365.755127,124.142418 360.252350,124.738167 356.589966,130.769836 
	C361.386597,135.829987 373.764099,135.788696 377.618591,130.628571 
	C377.734741,130.473038 376.814789,129.543594 375.693848,128.701599 
M655.376892,97.552582 
	C652.608643,92.105614 647.561340,89.960976 642.106140,88.054420 
	C642.300476,98.602081 647.439331,104.603996 655.982605,103.997597 
	C655.894592,102.101959 655.805603,100.186218 655.376892,97.552582 
M675.844788,156.730545 
	C669.938904,150.451904 663.065491,152.397339 655.954712,154.142288 
	C661.341431,160.627090 668.435730,163.475250 673.771667,161.306061 
	C675.367493,160.657333 678.222290,160.418655 675.844788,156.730545 
M339.551361,183.072662 
	C336.438110,175.457504 329.653503,174.829636 322.701782,173.864716 
	C325.219208,182.403046 330.515961,187.424225 336.408203,187.226547 
	C338.685669,187.150131 340.421661,186.664322 339.551361,183.072662 
M324.746399,162.777603 
	C326.743988,166.821335 329.569946,169.976700 334.219727,170.768372 
	C335.579956,170.999954 337.884033,170.904541 338.319214,170.140732 
	C338.986542,168.969437 338.804352,166.945343 338.289978,165.536011 
	C336.455688,160.510345 329.167877,156.851013 322.513855,157.523087 
	C323.145905,159.121506 323.748230,160.644760 324.746399,162.777603 
M691.817627,159.164474 
	C687.325012,161.580566 683.811218,164.564911 685.070801,170.404434 
	C693.102844,171.728317 699.306702,166.346191 700.709473,156.501602 
	C697.820312,157.359482 695.172974,158.145538 691.817627,159.164474 
M691.357300,140.735641 
	C688.699829,142.886337 685.605042,144.695892 683.556885,147.321884 
	C682.417175,148.783096 683.021301,151.604492 682.839539,153.812851 
	C685.005188,153.664200 687.509033,154.165085 689.273743,153.246338 
	C694.795471,150.371658 696.197571,144.967560 697.153442,138.725204 
	C695.066040,139.391296 693.547791,139.875778 691.357300,140.735641 
M354.030090,175.810028 
	C359.019379,174.379776 363.001373,171.616852 366.120300,167.201233 
	C355.650970,164.036514 347.994019,166.660416 345.695923,174.640625 
	C348.265808,175.078705 350.749207,175.502045 354.030090,175.810028 
M662.979431,185.631165 
	C667.163330,188.844269 671.547363,190.500809 676.633362,187.682999 
	C674.357849,179.654175 668.229004,176.819427 656.841431,178.613708 
	C658.840576,180.931412 660.646423,183.025070 662.979431,185.631165 
M350.065918,181.521759 
	C348.862640,183.391800 347.659393,185.261841 346.415924,187.194305 
	C354.211945,191.112000 362.821167,186.833267 366.474304,176.709854 
	C360.623077,178.314606 355.637482,179.681946 350.065918,181.521759 
M790.251099,299.371002 
	C790.058899,297.265717 789.866699,295.160431 789.674500,293.055145 
	C787.504028,293.317688 785.265564,293.342773 783.189819,293.936432 
	C782.038635,294.265625 780.552246,295.387878 780.283142,296.428436 
	C779.718567,298.611511 779.858582,300.976746 779.709229,303.267212 
	C781.706177,303.335724 783.843323,303.873383 785.657898,303.331390 
	C787.244995,302.857361 788.469482,301.169189 790.251099,299.371002 
M629.320129,209.447418 
	C633.288696,213.180710 638.082397,212.691116 638.789062,208.306183 
	C639.057922,206.637665 638.407654,203.996231 637.212036,203.131424 
	C635.810913,202.118042 632.580322,201.671616 631.547729,202.578445 
	C630.056946,203.887650 629.829834,206.635696 629.320129,209.447418 
M388.327026,203.153244 
	C386.041077,207.817398 386.859314,211.359100 390.698822,211.766495 
	C392.495422,211.957123 395.258545,210.982529 396.142670,209.608734 
	C397.038208,208.217209 396.898315,204.563751 395.888062,203.891998 
	C394.093658,202.698868 391.299377,203.009506 388.327026,203.153244 
z"/>
<path fill="#464699" opacity="1.000000" stroke="none" 
	d="
M631.081421,181.921936 
	C629.201050,126.327110 584.770630,78.025856 530.464966,70.741592 
	C467.560608,62.303951 412.491272,103.826866 399.649078,160.427612 
	C397.678375,169.113129 396.977081,178.086655 395.664246,187.094940 
	C393.697723,187.094940 391.602112,187.094940 388.929993,187.094940 
	C390.756622,141.761673 409.191040,105.541290 447.655914,81.720978 
	C490.529694,55.170307 535.080017,55.087013 578.562012,80.694389 
	C621.709351,106.104652 639.457458,152.185364 638.060364,187.003372 
	C636.005859,187.003372 633.929443,187.003372 631.327698,187.003372 
	C631.249146,185.524887 631.165405,183.948944 631.081421,181.921936 
z"/>
<path fill="#434397" opacity="1.000000" stroke="none" 
	d="
M538.621460,182.300171 
	C533.923462,170.594696 529.338623,159.216095 524.998352,147.744934 
	C519.772156,133.932083 514.753784,120.040581 509.187225,104.940109 
	C504.918488,115.829140 501.034088,125.737816 497.150513,135.644363 
	C485.945465,130.860641 485.949432,130.862213 490.092834,120.450256 
	C492.487549,114.432533 494.611603,108.290222 497.333435,102.424850 
	C499.543274,97.662811 499.677948,93.557472 494.661774,89.102188 
	C503.276184,89.102188 510.816620,88.883385 518.320618,89.308372 
	C519.636902,89.382919 521.279297,91.970573 521.962952,93.714439 
	C533.659851,123.550186 545.102356,153.486267 556.928711,183.270096 
	C559.446533,189.611008 563.259033,195.437775 566.507812,201.563065 
	C556.711609,196.232300 546.060730,191.966476 538.621460,182.300171 
z"/>
<path fill="#F4813B" opacity="1.000000" stroke="none" 
	d="
M578.085144,210.026901 
	C586.146240,212.671158 593.832947,215.204681 601.519592,217.738205 
	C601.537109,217.990707 601.554565,218.243195 601.572083,218.495697 
	C597.903015,218.808960 594.222046,219.488525 590.567139,219.369186 
	C577.814148,218.952774 564.871033,219.461792 552.369507,217.390152 
	C533.728516,214.301178 520.439514,202.511169 510.755493,186.635986 
	C507.383484,181.108200 504.251587,175.415710 501.318146,169.641891 
	C491.588226,150.490540 479.892700,133.285202 458.738678,124.738174 
	C460.656738,125.029984 462.626587,125.133072 464.484924,125.642746 
	C483.408356,130.832718 498.846985,141.185638 510.781403,156.817383 
	C522.120972,171.669983 533.839539,186.286774 550.195435,195.971527 
	C559.024048,201.199234 568.517273,205.304504 578.085144,210.026901 
z"/>
<path fill="#EF3D3E" opacity="1.000000" stroke="none" 
	d="
M127.807556,340.056458 
	C131.507568,344.905487 134.264252,340.570953 137.538391,339.300598 
	C139.105286,343.602448 136.243164,345.724548 133.375137,347.540680 
	C131.463287,348.751282 129.221466,349.842651 127.017113,350.124115 
	C112.924599,351.923462 114.175392,349.049713 115.679871,339.135681 
	C116.025223,336.859924 116.323753,334.577057 116.725533,331.715576 
	C111.584930,331.715576 106.771858,331.512787 101.996201,331.846191 
	C100.662437,331.939301 99.249474,333.442169 98.198662,334.595306 
	C94.064728,339.131714 90.555023,344.379639 85.896034,348.262451 
	C78.333099,354.565521 69.217827,356.350861 59.569836,353.993713 
	C51.780907,352.090790 49.583836,344.862946 54.613010,338.327728 
	C63.061531,349.361053 75.355293,350.278778 85.667709,340.159119 
	C89.783073,336.120667 93.336647,331.376343 96.504044,326.533508 
	C102.755836,316.974792 108.559937,307.123230 115.287323,296.193542 
	C108.436897,297.591553 102.200394,298.281738 96.376472,300.214844 
	C90.423080,302.190948 88.417809,307.287079 89.884476,313.546082 
	C90.219734,314.976746 90.578270,316.401978 90.969322,318.007141 
	C83.086967,314.835388 80.693321,305.333649 86.289444,299.396240 
	C88.276321,297.288177 90.930946,295.451996 93.635582,294.440613 
	C104.515717,290.371979 115.794167,289.977448 127.061180,292.387177 
	C133.707932,293.808777 134.753967,295.980042 133.689972,302.648682 
	C131.725006,314.964264 129.807755,327.287476 127.807556,340.056458 
M117.878311,307.380737 
	C113.872696,312.944031 109.867081,318.507324 105.338684,324.796692 
	C110.185944,324.796692 113.476952,324.796692 116.989182,324.796692 
	C117.973671,318.928741 118.940903,313.218140 119.826942,307.494995 
	C119.844826,307.379456 118.916153,307.117371 117.878311,307.380737 
z"/>
<path fill="#474799" opacity="1.000000" stroke="none" 
	d="
M326.029175,239.164246 
	C352.486481,238.769730 378.942657,238.233551 405.401428,238.016922 
	C437.706757,237.752411 470.014557,237.618835 502.320831,237.674698 
	C557.086853,237.769379 611.852783,238.021393 666.618347,238.292068 
	C678.096497,238.348801 689.572754,238.772690 701.509277,239.370789 
	C701.966492,240.069489 701.964294,240.424774 701.962158,240.780075 
	C672.829773,241.193176 643.698608,241.812271 614.564819,241.973602 
	C564.428101,242.251251 514.289795,242.343231 464.152283,242.320038 
	C432.175018,242.305237 400.197388,241.998337 368.220947,241.709824 
	C354.413116,241.585251 340.607880,241.176193 326.418152,240.568604 
	C326.032959,239.881989 326.031067,239.523117 326.029175,239.164246 
z"/>
<path fill="#EE3B3D" opacity="1.000000" stroke="none" 
	d="
M317.246521,347.329529 
	C312.646362,348.571777 308.360596,350.370758 304.052002,350.427277 
	C298.503326,350.500031 294.549011,346.475983 295.327240,341.040527 
	C296.391998,333.604279 298.129211,326.023132 301.108887,319.169586 
	C304.130951,312.218597 311.274231,310.036224 318.476990,309.083923 
	C320.949951,308.756989 323.483337,308.764099 325.905792,308.236237 
	C326.916473,308.015961 328.408508,306.864044 328.487579,306.023438 
	C328.966858,300.928253 332.111938,295.719147 327.653992,290.583252 
	C333.426575,287.903595 338.811157,285.404053 345.352173,282.367706 
	C342.181183,302.682465 339.156860,322.057831 335.891449,342.977570 
	C339.488403,341.027374 342.166565,339.575317 344.692749,338.205658 
	C344.512512,344.218689 341.131409,347.822540 334.000763,350.100403 
	C327.954590,352.031860 324.948517,348.875946 322.814728,343.699493 
	C320.844818,344.976501 319.197815,346.044159 317.246521,347.329529 
M309.754700,324.461761 
	C309.293182,328.060120 308.460938,331.660248 308.477936,335.256348 
	C308.493896,338.625580 310.358124,342.151947 313.963013,341.674866 
	C317.358765,341.225403 322.595734,339.335449 323.326019,336.948303 
	C325.607727,329.489746 326.140869,321.496216 327.370087,313.592072 
	C314.514526,313.923676 312.817352,314.946136 309.754700,324.461761 
z"/>
<path fill="#EF3C3E" opacity="1.000000" stroke="none" 
	d="
M450.185089,342.644165 
	C458.632477,341.121643 459.847748,339.765289 461.177521,331.253418 
	C462.972504,319.763824 464.835693,308.284912 466.775238,296.140045 
	C458.430542,296.476746 450.358368,294.026215 443.288116,300.320404 
	C435.299469,307.432129 440.455902,314.923676 441.550964,322.928040 
	C439.394318,321.050781 437.060730,319.339417 435.114929,317.264435 
	C429.749054,311.542267 429.930756,303.466980 436.262085,298.887451 
	C440.447510,295.860077 445.522675,293.215973 450.531830,292.371490 
	C458.166748,291.084351 466.087219,291.395508 473.890625,291.243958 
	C477.699341,291.170013 479.599396,292.815704 478.829254,297.164307 
	C476.944275,307.808167 475.317749,318.500458 473.753876,329.197632 
	C472.649231,336.753876 468.332947,342.049866 462.048676,345.697571 
	C452.667358,351.142944 442.584412,352.129578 432.180054,349.054871 
	C427.572449,347.693237 423.097961,345.702057 422.445282,340.247437 
	C421.801453,334.867126 425.191803,331.376953 429.166718,328.376648 
	C429.541901,328.781769 429.920807,329.004944 429.908752,329.204529 
	C429.275299,339.685974 431.125732,341.880798 441.784546,342.787567 
	C444.419830,343.011749 447.098175,342.729218 450.185089,342.644165 
z"/>
<path fill="#EF3D3E" opacity="1.000000" stroke="none" 
	d="
M395.757996,344.677795 
	C388.951111,352.901550 379.734070,352.438293 374.093994,343.657043 
	C371.850494,345.004700 369.716003,346.661316 367.306335,347.641754 
	C364.127563,348.935181 360.778137,350.305206 357.421143,350.555023 
	C351.506378,350.995178 348.481659,348.176971 347.400726,342.415985 
	C344.677460,327.902618 353.002838,313.089722 367.218719,310.095612 
	C375.274323,308.398956 383.980164,309.789337 392.735535,309.789337 
	C390.972321,321.066956 389.232605,332.194489 387.275696,344.710999 
	C390.619110,343.613220 393.194672,342.767548 395.817719,341.906281 
	C395.817719,342.379883 395.817719,343.345490 395.757996,344.677795 
M361.523560,341.067719 
	C367.803741,342.968628 374.668976,340.565826 375.603455,335.739899 
	C376.975311,328.655457 377.855896,321.475861 378.948242,314.321075 
	C364.655182,312.912781 363.300964,314.072357 361.835663,326.892609 
	C361.320343,331.401123 361.226074,335.957764 361.523560,341.067719 
z"/>
<path fill="#EF3D3F" opacity="1.000000" stroke="none" 
	d="
M236.935822,315.225891 
	C235.426346,324.847687 233.968536,334.042114 232.285706,344.655670 
	C235.658386,343.591858 238.224380,342.782471 240.814651,341.965454 
	C242.089691,347.840607 236.852463,348.457520 233.090500,349.790436 
	C226.371552,352.170990 223.475250,350.730927 219.240387,343.628021 
	C217.124817,344.871887 215.097321,346.335236 212.858032,347.314087 
	C209.845551,348.631012 206.743408,350.147949 203.548630,350.558319 
	C196.905777,351.411621 193.145920,348.108002 192.288864,341.511902 
	C190.445419,327.324341 197.508255,315.108398 210.781082,310.399506 
	C213.945984,309.276672 217.632004,309.456512 221.087524,309.357300 
	C226.532684,309.200989 231.985626,309.315735 237.757462,309.315735 
	C237.441299,311.567078 237.214401,313.182770 236.935822,315.225891 
M205.984070,331.527954 
	C205.702133,333.327820 205.101242,335.152191 205.237061,336.919952 
	C205.349915,338.388763 205.927795,340.337402 206.997681,341.123596 
	C210.676666,343.827057 219.736938,340.347717 220.605881,335.824615 
	C221.969910,328.724457 222.867111,321.534546 224.037308,313.890900 
	C221.175720,313.890900 218.717880,313.944611 216.263184,313.879547 
	C211.371155,313.749878 208.452377,315.802063 207.829712,320.898376 
	C207.428818,324.179565 206.662720,327.416168 205.984070,331.527954 
z"/>
<path fill="#EF3D3E" opacity="1.000000" stroke="none" 
	d="
M702.374634,349.574402 
	C699.896179,350.060120 697.761108,350.691193 695.648743,350.622406 
	C690.020813,350.439209 686.583862,347.773499 686.367249,342.217407 
	C685.683472,324.683502 690.693115,314.205719 705.795044,310.075348 
	C710.612305,308.757812 715.994995,309.467194 721.121216,309.333984 
	C724.412720,309.248474 727.708313,309.317993 731.684204,309.317993 
	C730.722900,315.496826 729.837952,321.151855 728.964478,326.808685 
	C728.108948,332.349823 727.265137,337.892761 726.205505,344.809753 
	C729.666870,343.610474 732.215210,342.727570 734.788513,341.835968 
	C735.695374,348.008698 730.393555,348.623260 726.423096,349.915527 
	C719.911133,352.034882 717.476624,350.723724 713.134583,343.788483 
	C709.679871,345.651642 706.204102,347.526154 702.374634,349.574402 
M716.002991,326.432861 
	C716.613708,322.389832 717.224365,318.346832 717.897644,313.889313 
	C715.050903,313.889313 712.581360,313.936859 710.114258,313.879272 
	C705.239319,313.765533 702.302734,315.724640 701.728516,320.904572 
	C701.272705,325.015778 700.111572,329.055634 699.763245,333.169495 
	C699.543518,335.764648 699.470215,340.167236 700.692810,340.713867 
	C703.197815,341.833893 706.744873,341.405365 709.630493,340.684387 
	C712.866089,339.875885 714.780151,337.326813 714.969727,333.692627 
	C715.081482,331.551453 715.599609,329.431488 716.002991,326.432861 
z"/>
<path fill="#EF3D3E" opacity="1.000000" stroke="none" 
	d="
M942.695312,342.151001 
	C946.563782,343.295319 943.973145,346.061340 943.208496,346.556610 
	C938.719971,349.463928 933.806580,352.009521 928.274353,350.078094 
	C925.741638,349.193848 923.618530,347.136627 921.309753,345.611328 
	C921.730530,344.974426 922.151245,344.337524 922.572021,343.700623 
	C920.478516,344.956787 918.501709,346.504333 916.264099,347.400696 
	C912.929504,348.736450 909.456421,350.305420 905.960815,350.534943 
	C899.430969,350.963684 895.878906,347.439301 896.085815,340.905853 
	C896.247070,335.814301 896.726135,330.578949 898.125305,325.712738 
	C900.980347,315.783722 910.301697,309.340485 920.654846,309.315704 
	C927.276978,309.299866 933.899231,309.312714 941.325256,309.312714 
	C939.502319,321.046875 937.761169,332.254669 935.814392,344.786255 
	C938.515259,343.792938 940.459839,343.077820 942.695312,342.151001 
M919.798096,340.533325 
	C921.199097,339.223328 923.524475,338.105560 923.843628,336.570618 
	C925.357300,329.290253 926.323853,321.896118 927.588013,313.891602 
	C924.570801,313.891602 922.117981,313.950409 919.669006,313.878967 
	C914.972839,313.741943 912.155396,315.773254 911.421143,320.565186 
	C910.666443,325.490082 909.565125,330.368988 908.982422,335.311279 
	C908.309875,341.014984 910.490906,342.832977 916.214233,341.762909 
	C917.187866,341.580872 918.120056,341.177155 919.798096,340.533325 
z"/>
<path fill="#444598" opacity="1.000000" stroke="none" 
	d="
M509.983337,194.954193 
	C516.737244,204.770279 525.423584,212.007736 535.091187,218.261642 
	C522.997498,214.356781 512.793213,207.466095 505.052582,197.764725 
	C497.458862,188.247452 491.083160,177.758331 484.148407,167.660126 
	C481.290375,175.418747 477.757080,183.737534 475.327606,192.367111 
	C474.580933,195.019363 476.852875,198.521484 477.748138,201.653931 
	C471.010132,201.653931 463.045990,201.653931 454.915558,201.653931 
	C464.946930,191.437408 467.054626,177.342270 472.948212,165.104858 
	C475.674988,159.442978 477.774445,153.478973 480.671539,146.397430 
	C484.165131,151.261261 487.482483,155.163086 489.995697,159.527924 
	C495.210968,168.585526 499.957764,177.911743 504.989655,187.076721 
	C506.425568,189.692047 508.179626,192.132706 509.983337,194.954193 
z"/>
<path fill="#EF3D3E" opacity="1.000000" stroke="none" 
	d="
M508.428833,309.440796 
	C510.302582,309.479370 511.828278,309.422729 513.260071,309.762085 
	C519.722656,311.293793 520.840820,312.850677 519.890076,319.236206 
	C518.717834,327.108887 517.402100,334.960236 515.937256,344.144379 
	C519.340271,342.414856 521.930603,341.098389 524.411011,339.837769 
	C524.853394,343.837219 522.312378,347.436432 517.220398,349.478943 
	C515.998901,349.968872 514.673950,350.257843 513.369141,350.473633 
	C504.813446,351.888763 502.917175,350.006714 504.272614,341.599976 
	C505.721313,332.614441 507.127655,323.622070 508.561340,314.576843 
	C501.619690,314.413025 494.786469,319.918945 493.763031,326.117096 
	C492.437744,334.143250 491.121216,342.170807 489.767365,350.401794 
	C485.795319,350.401794 482.048340,350.401794 478.308105,350.401794 
	C477.767822,338.734253 484.298553,327.731720 480.424683,315.395874 
	C485.053589,313.517639 490.199310,311.429688 495.726196,309.187073 
	C495.910248,311.080902 496.046387,312.482025 496.191650,313.976868 
	C500.310455,312.429962 504.174011,310.978973 508.428833,309.440796 
z"/>
<path fill="#EF3C3E" opacity="1.000000" stroke="none" 
	d="
M860.246216,336.473877 
	C859.472656,341.321136 858.785522,345.739349 858.062256,350.390106 
	C853.997803,350.390106 850.264648,350.390106 846.017029,350.390106 
	C847.361938,341.954498 848.842590,333.817932 849.869934,325.624542 
	C850.250488,322.588989 849.566406,319.419891 849.292114,315.126251 
	C853.248779,313.518158 858.482544,311.390991 864.153076,309.086334 
	C864.153076,311.067535 864.153076,312.322540 864.153076,313.785187 
	C864.672424,313.785187 865.185242,313.926270 865.566589,313.762085 
	C867.854858,312.776978 870.106812,311.708069 872.382385,310.692841 
	C877.157043,308.562653 881.906738,308.741455 886.098572,311.807068 
	C887.427795,312.779175 888.566650,315.251343 888.369995,316.863525 
	C887.310852,325.547028 885.803894,334.175873 884.209961,344.368011 
	C887.945312,342.320343 890.409790,340.969360 892.979736,339.560577 
	C893.661804,345.502686 889.112122,347.534760 885.048584,349.496765 
	C882.918701,350.525085 880.194946,350.632141 877.742004,350.620300 
	C872.129089,350.593292 871.322144,349.601410 872.157532,344.116333 
	C873.657410,334.268738 875.272705,324.438721 876.840820,314.594482 
	C870.237549,314.055359 862.851074,319.872742 861.929138,326.203308 
	C861.450317,329.491638 860.868164,332.764862 860.246216,336.473877 
z"/>
<path fill="#EF3D3E" opacity="1.000000" stroke="none" 
	d="
M662.373413,314.993103 
	C655.992065,318.335571 651.902039,322.621277 651.605347,330.104980 
	C651.389832,335.538605 649.697144,340.897980 649.131287,346.339142 
	C648.783264,349.686340 647.629211,351.091705 644.195862,350.735931 
	C641.774292,350.485046 639.305664,350.687408 636.938965,350.687408 
	C636.377014,338.639923 642.863647,327.521698 639.038818,315.340576 
	C643.730347,313.458771 648.900269,311.385071 654.524475,309.129150 
	C654.649719,311.091003 654.736633,312.452362 654.846313,314.170349 
	C657.821289,312.866913 660.298645,311.410248 662.973938,310.711090 
	C665.786438,309.976166 668.899048,309.304810 671.685486,309.771088 
	C678.397156,310.894104 679.501038,312.983307 678.401062,319.603638 
	C677.125916,327.278503 675.998474,334.977905 674.572510,344.178772 
	C678.184753,342.282990 680.749634,340.936890 683.196106,339.652924 
	C683.142456,344.205780 681.469971,347.516296 676.228027,349.037415 
	C672.174072,350.213745 667.563171,349.604645 663.219055,349.393341 
	C662.871643,349.376495 662.245178,346.213684 662.477051,344.618774 
	C663.930603,334.620239 665.591064,324.651764 667.306824,313.897980 
	C665.409851,314.304321 664.074768,314.590271 662.373413,314.993103 
z"/>
<path fill="#EF3C3E" opacity="1.000000" stroke="none" 
	d="
M157.323700,332.558167 
	C156.528519,337.417999 155.505478,341.834473 155.239899,346.295990 
	C155.011169,350.138702 153.327545,351.118225 149.869110,350.727966 
	C147.745514,350.488342 145.572845,350.683655 142.944687,350.683655 
	C142.655869,339.010712 148.610046,327.825592 145.455765,315.270325 
	C149.810104,313.501770 155.047150,311.374695 160.758636,309.054932 
	C160.758636,311.001801 160.758636,312.266327 160.758636,313.701050 
	C161.485458,313.665192 161.982513,313.765503 162.366089,313.601044 
	C164.505066,312.684204 166.602798,311.671234 168.740387,310.750946 
	C172.920624,308.951324 176.997498,308.902679 181.267136,310.839661 
	C184.547302,312.327789 185.587357,314.254944 184.922180,317.827148 
	C183.377060,326.124969 182.192749,334.489929 180.633667,344.259857 
	C184.301666,342.320374 186.911514,340.940369 189.578278,339.530304 
	C190.253540,344.789612 186.420135,347.598053 182.568512,348.851288 
	C178.553665,350.157684 173.909637,349.656281 169.548630,349.565063 
	C169.142456,349.556610 168.298080,346.740601 168.498383,345.349274 
	C169.800873,336.301788 171.349030,327.289795 172.780579,318.260468 
	C172.982559,316.986542 172.987335,315.681335 173.084335,314.377716 
	C166.029205,314.638214 159.561081,319.948517 158.373474,326.230286 
	C158.003342,328.188110 157.737976,330.165771 157.323700,332.558167 
z"/>
<path fill="#EF3C3E" opacity="1.000000" stroke="none" 
	d="
M257.595276,349.602997 
	C253.685852,350.299255 249.957947,350.615479 246.057831,350.946320 
	C245.513977,338.799347 252.064880,327.639160 248.227463,315.332031 
	C252.858810,313.463348 258.029877,311.376862 263.599213,309.129700 
	C263.746704,311.021393 263.853638,312.393158 264.000397,314.275391 
	C266.470032,313.132812 268.468048,311.903503 270.639984,311.277557 
	C273.626373,310.416870 276.804657,309.301636 279.793945,309.555054 
	C286.929352,310.160126 288.677368,313.057037 287.477600,320.070862 
	C286.166931,327.733276 285.075287,335.433167 283.694122,344.372406 
	C287.242828,342.425171 289.768372,341.039398 292.206024,339.701813 
	C292.535065,343.934021 289.708282,347.782837 284.557526,349.604523 
	C283.005127,350.153595 281.333862,350.487030 279.691132,350.639557 
	C272.229767,351.332367 270.889191,349.948334 271.970856,342.658386 
	C273.357727,333.311554 274.820374,323.976013 276.256653,314.594482 
	C269.704285,314.384399 262.601227,319.728180 261.583984,325.570953 
	C260.214386,333.437439 259.036804,341.337372 257.595276,349.602997 
z"/>
<path fill="#EF3C3D" opacity="1.000000" stroke="none" 
	d="
M843.240356,321.761414 
	C842.909546,324.310547 842.692383,326.462128 842.300903,328.581451 
	C839.217224,345.276398 831.640503,351.303925 814.759033,350.540771 
	C801.021484,349.919739 798.137573,346.360321 800.433533,332.751129 
	C800.846985,330.300354 801.335632,327.847107 802.014221,325.458862 
	C804.983276,315.008209 811.242310,309.903534 822.033386,309.191559 
	C825.179810,308.983978 828.354614,309.007172 831.507751,309.136200 
	C840.721069,309.513275 843.137634,312.070282 843.240356,321.761414 
M819.732422,314.804901 
	C818.368164,316.327942 816.133240,317.676117 815.786377,319.403473 
	C814.040222,328.098328 812.786926,336.892151 811.246338,346.352570 
	C815.617249,345.911591 819.302917,345.868347 822.803650,345.041718 
	C824.443726,344.654480 826.721802,342.953705 827.009460,341.509369 
	C828.809204,332.472931 830.128540,323.340851 831.748230,313.370239 
	C827.345459,313.800598 823.924072,314.135040 819.732422,314.804901 
z"/>
<path fill="#EF3C3E" opacity="1.000000" stroke="none" 
	d="
M591.696533,327.625488 
	C586.380493,331.232239 581.224548,334.465118 576.237549,337.940491 
	C574.712097,339.003601 573.650513,340.732330 572.376526,342.156219 
	C573.936096,343.422394 575.326355,345.409210 577.086243,345.822723 
	C582.897583,347.188080 587.759888,344.567352 592.247192,341.142578 
	C593.545593,340.151672 594.845032,339.162109 596.272949,338.073578 
	C596.740967,344.066437 595.991943,345.746429 591.109497,347.872925 
	C582.569214,351.592499 573.686890,351.770996 564.755127,349.581726 
	C560.774963,348.606140 559.120056,345.376251 559.206360,341.640930 
	C559.407227,332.947052 560.656738,324.391144 565.318970,316.803711 
	C570.109802,309.007050 581.821350,304.614319 590.731628,307.019531 
	C594.482971,308.032104 596.710083,310.786041 596.090210,314.347900 
	C595.317566,318.787598 593.364868,323.021942 591.696533,327.625488 
M577.618896,332.536438 
	C584.590210,329.313995 587.788757,324.295929 586.604736,317.130280 
	C586.279846,315.163940 583.622009,311.856506 582.661621,312.064148 
	C580.319702,312.570435 577.145386,314.368896 576.466064,316.377533 
	C574.943970,320.878510 574.768066,325.829315 573.980957,330.586487 
	C573.546021,333.215698 574.902405,333.367859 577.618896,332.536438 
z"/>
<path fill="#EE3B3D" opacity="1.000000" stroke="none" 
	d="
M953.381653,350.362366 
	C951.787720,350.245758 950.639221,350.170013 949.001587,350.062073 
	C950.862183,338.265564 952.694275,326.650513 954.526184,315.035431 
	C955.355103,309.780090 956.402832,304.546234 956.922729,299.260498 
	C957.194031,296.501770 956.536072,293.651672 956.205200,289.749878 
	C960.296814,287.769287 965.566589,285.218414 971.629456,282.283630 
	C969.484619,296.023956 967.468689,308.931061 965.455750,321.838654 
	C964.559387,327.586975 963.539978,333.321350 962.873596,339.096344 
	C962.719910,340.428528 963.416626,342.614258 964.389282,343.117554 
	C965.452454,343.667633 967.524414,343.098938 968.738708,342.344879 
	C970.945068,340.974792 972.842041,339.106659 975.107544,337.250244 
	C974.789978,347.654449 967.994446,351.699890 953.381653,350.362366 
z"/>
<path fill="#EF3C3E" opacity="1.000000" stroke="none" 
	d="
M550.951477,292.985016 
	C550.407776,298.212982 549.864075,303.440918 549.295166,308.911499 
	C551.668274,309.024353 553.963623,309.133514 556.237305,309.241638 
	C556.992188,313.317505 556.992188,313.317505 548.284058,313.950867 
	C546.890198,322.483673 545.373169,331.115967 544.118042,339.786194 
	C543.637268,343.107605 546.161194,344.888519 549.125183,343.266205 
	C551.811157,341.796021 554.125000,339.645935 556.720398,337.707947 
	C557.060974,342.795746 554.922363,346.185944 550.440491,348.081635 
	C548.000000,349.113892 545.568420,350.331299 543.007446,350.885895 
	C532.863770,353.082642 530.535156,350.938049 532.001953,340.940308 
	C533.280640,332.224792 534.681396,323.527161 536.085999,314.447906 
	C535.226440,314.176941 534.273682,314.073639 533.572449,313.598846 
	C532.902893,313.145538 532.101929,312.319824 532.076599,311.631409 
	C532.047729,310.847168 532.897217,309.305511 533.221252,309.342773 
	C537.673279,309.854614 537.593811,306.383636 538.490295,303.672791 
	C540.394226,297.915955 545.040649,295.118866 550.617432,292.982635 
	C550.972412,292.981659 550.951477,292.985016 550.951477,292.985016 
z"/>
<path fill="#EF3C3E" opacity="1.000000" stroke="none" 
	d="
M764.849365,309.115234 
	C765.838196,310.054993 766.851990,311.013092 766.800720,311.910339 
	C766.764648,312.542053 765.333130,313.474823 764.432678,313.597473 
	C762.521423,313.857727 760.550049,313.676880 758.446350,313.676880 
	C756.980896,322.752014 755.528992,331.247223 754.273621,339.771332 
	C753.797913,343.001404 756.330688,344.847931 759.245728,343.277618 
	C761.825256,341.888062 764.040161,339.821655 767.384277,338.211975 
	C766.371948,340.682587 766.020630,343.908447 764.222961,345.481689 
	C758.912170,350.129456 752.479675,352.137634 745.275574,351.155640 
	C741.678833,350.665344 740.628540,348.946014 741.271606,345.345123 
	C743.082458,335.204834 744.595642,325.011444 746.281189,314.495850 
	C745.278198,314.178741 744.312073,314.078094 743.612305,313.593140 
	C742.944397,313.130310 742.157104,312.272949 742.147034,311.578491 
	C742.135742,310.799072 743.037354,309.284851 743.369812,309.330933 
	C747.913208,309.960754 747.814331,306.311279 748.664001,303.677612 
	C750.609375,297.647461 755.442505,295.073456 761.599121,292.494965 
	C760.761719,298.369446 760.029541,303.505157 759.230896,309.107605 
	C761.144104,309.107605 762.781677,309.107605 764.849365,309.115234 
z"/>
<path fill="#EE3B3D" opacity="1.000000" stroke="none" 
	d="
M615.890625,338.772461 
	C616.253906,341.434235 616.617310,343.650208 617.080322,346.473816 
	C612.060120,348.379791 606.583008,350.459229 600.966614,352.591553 
	C600.593445,339.970032 607.271545,328.211151 603.665894,315.114014 
	C608.108521,312.886139 613.264526,310.300476 618.978333,307.435089 
	C619.063232,309.281891 619.124695,310.618683 619.233032,312.974854 
	C624.979614,309.508850 630.318604,306.288727 636.875610,302.333923 
	C636.200562,307.320374 635.728760,310.805725 635.256958,314.290924 
	C634.654663,314.575684 634.253601,314.876709 633.812012,314.958008 
	C618.721069,317.736694 616.508850,321.995544 615.911682,334.831360 
	C615.857544,335.994263 615.895569,337.161469 615.890625,338.772461 
z"/>
<path fill="#EE3B3D" opacity="1.000000" stroke="none" 
	d="
M773.226562,333.105164 
	C773.835693,329.558868 774.662292,326.461670 774.838135,323.327972 
	C775.012085,320.229431 774.528870,317.094025 774.278564,313.088867 
	C778.254761,311.397430 783.349365,309.230164 789.459290,306.631042 
	C788.427307,313.620483 787.550354,319.749786 786.609558,325.869293 
	C785.927795,330.303650 784.958252,334.706238 784.547241,339.162689 
	C784.410645,340.643646 785.203491,342.952850 786.315674,343.595581 
	C787.406372,344.225861 789.622925,343.565613 791.021362,342.844025 
	C792.885498,341.882111 794.436584,340.313507 796.278931,338.883820 
	C796.673706,343.697388 792.527039,348.481293 786.449097,349.836212 
	C783.435242,350.508087 780.094238,350.705475 777.083862,350.141937 
	C773.548767,349.480133 770.594849,347.646149 771.775452,342.903748 
	C772.534180,339.855988 772.717590,336.665039 773.226562,333.105164 
z"/>
<path fill="#1CB069" opacity="1.000000" stroke="none" 
	d="
M346.008179,157.997589 
	C345.317932,161.260269 344.272919,164.493195 343.996338,167.790573 
	C342.465881,186.037384 345.815521,203.181107 356.041260,218.674698 
	C356.273285,219.026306 356.280762,219.526138 355.432770,220.613327 
	C353.681580,218.051895 351.565796,215.665833 350.236359,212.901566 
	C338.685303,188.883759 337.350891,164.428574 347.464722,139.561768 
	C349.215485,135.257187 350.894318,130.923325 352.306122,126.322159 
	C352.005829,126.041321 351.943268,126.025673 352.367920,126.046600 
	C352.851990,125.364410 352.911377,124.661293 352.984558,123.980133 
	C352.998413,124.002083 352.947937,124.011909 352.947937,124.011917 
	C355.471008,119.783958 357.994080,115.556000 360.106079,110.970367 
	C359.695038,110.612694 359.937256,110.522011 360.439636,110.588669 
	C360.954834,110.086044 360.967682,109.516777 360.990540,108.973618 
	C361.000610,108.999741 360.945557,109.008110 360.945557,109.008118 
	C361.916718,109.168953 362.887909,109.329796 363.521149,109.434669 
	C358.930817,119.970695 354.288513,130.626007 349.819885,141.625214 
	C349.993530,141.969086 350.043854,141.977386 349.668579,142.032349 
	C349.548828,142.813477 349.804352,143.539642 350.055786,144.453262 
	C350.051697,144.640701 349.995239,145.011414 349.995239,145.011414 
	C349.301727,145.510788 348.169006,145.886368 347.987610,146.530060 
	C346.978516,150.110596 346.200195,153.756149 345.650085,157.692444 
	C345.957245,158.005417 346.008179,157.997589 346.008179,157.997589 
z"/>
<path fill="#1CB069" opacity="1.000000" stroke="none" 
	d="
M682.992798,184.012131 
	C681.680542,188.849243 680.683105,193.800735 678.977478,198.494904 
	C676.780212,204.542053 674.104614,210.423584 671.434875,216.285278 
	C670.737854,217.815628 669.298279,219.007751 667.619751,220.110382 
	C682.517395,195.509064 683.064880,169.783249 674.408081,143.106171 
	C674.086365,142.966537 674.126465,143.013687 674.126465,143.013672 
	C669.570435,132.668976 665.034241,122.315445 660.436890,111.989143 
	C659.747742,110.441093 658.771973,109.020622 658.459412,107.154121 
	C660.034485,108.428604 661.609619,109.703094 663.473083,110.601646 
	C663.761414,110.225716 663.688293,110.080566 663.688293,110.080566 
	C663.660034,111.031364 663.281616,112.161736 663.661743,112.903091 
	C665.749084,116.973648 668.022156,120.948982 670.566162,124.975708 
	C670.900818,124.994415 670.871033,124.941025 670.871033,124.941025 
	C672.914551,130.616074 674.905640,136.310669 677.012268,141.962234 
	C681.991699,155.321381 684.396301,169.001755 682.652588,183.642426 
	C682.937927,184.021271 682.992798,184.012131 682.992798,184.012131 
z"/>
<path fill="#10AC62" opacity="1.000000" stroke="none" 
	d="
M674.061951,142.947449 
	C673.464783,148.432709 669.085144,149.009094 665.345825,148.340012 
	C660.823669,147.530838 656.567078,145.237213 652.402344,142.903748 
	C659.715515,139.381256 666.758972,136.928802 673.764160,143.171875 
	C674.126465,143.013687 674.086365,142.966537 674.061951,142.947449 
z"/>
<path fill="#0FAC62" opacity="1.000000" stroke="none" 
	d="
M350.035309,145.361115 
	C349.995239,145.011414 350.051697,144.640701 350.155762,144.023911 
	C350.187836,142.930542 350.115845,142.453964 350.043854,141.977386 
	C350.043854,141.977386 349.993530,141.969086 349.983826,141.991943 
	C356.995728,138.562897 363.963806,138.467697 370.981598,142.234131 
	C364.301392,148.954636 356.431793,150.227417 350.035309,145.361115 
z"/>
<path fill="#0CAB61" opacity="1.000000" stroke="none" 
	d="
M367.418854,101.054909 
	C369.063812,94.194916 372.603149,91.026360 381.861359,88.017326 
	C381.154053,94.461662 379.723419,100.312248 373.557495,103.377090 
	C371.498627,104.400482 367.953064,106.698296 367.418854,101.054909 
z"/>
<path fill="#0DAB61" opacity="1.000000" stroke="none" 
	d="
M366.419922,191.759171 
	C367.444122,192.042450 368.677765,192.437653 368.648407,192.590973 
	C367.374359,199.243713 356.346252,204.357971 349.826935,201.390213 
	C350.605804,194.548615 355.078827,191.891281 366.419922,191.759171 
z"/>
<path fill="#0DAB61" opacity="1.000000" stroke="none" 
	d="
M345.951630,158.030945 
	C353.522125,151.804306 358.013031,151.007874 367.894806,154.407913 
	C363.492767,158.871597 358.867188,162.485672 352.471069,161.845062 
	C350.442169,161.641830 348.600586,159.568008 346.340729,158.173889 
	C346.008179,157.997589 345.957245,158.005417 345.951630,158.030945 
z"/>
<path fill="#0BAB60" opacity="1.000000" stroke="none" 
	d="
M372.189819,111.773026 
	C376.747986,112.856133 380.921234,113.944069 385.945435,115.253830 
	C376.589233,122.437607 368.685394,122.521912 362.830231,115.240730 
	C366.078583,113.987343 368.941742,112.882591 372.189819,111.773026 
z"/>
<path fill="#0DAB61" opacity="1.000000" stroke="none" 
	d="
M329.424500,190.814651 
	C338.047729,192.266525 341.057983,194.825043 341.750610,200.996170 
	C334.302887,204.071457 326.934631,199.899185 323.559082,190.353592 
	C325.500885,190.502090 327.264069,190.636917 329.424500,190.814651 
z"/>
<path fill="#0CAB61" opacity="1.000000" stroke="none" 
	d="
M682.134155,128.162857 
	C685.286011,126.081848 688.184021,124.256424 691.304810,122.290703 
	C692.783203,131.888535 687.938110,138.755630 679.511414,139.418045 
	C677.208923,135.115891 678.897949,131.645599 682.134155,128.162857 
z"/>
<path fill="#0FAC62" opacity="1.000000" stroke="none" 
	d="
M670.927185,125.009895 
	C671.437317,115.892143 674.196167,112.087708 683.371216,108.290207 
	C683.739685,113.649094 683.300720,118.723709 679.700684,122.738083 
	C677.758911,124.903343 675.218872,127.455055 671.270386,124.941452 
	C670.871033,124.941025 670.900818,124.994415 670.927185,125.009895 
z"/>
<path fill="#0EAB61" opacity="1.000000" stroke="none" 
	d="
M640.642090,117.765869 
	C639.775085,117.255836 639.217224,116.906143 638.650818,116.551086 
	C645.196106,110.318680 654.890686,110.154564 659.896606,116.163857 
	C655.765930,121.892815 650.893738,122.346046 640.642090,117.765869 
z"/>
<path fill="#0AAB5F" opacity="1.000000" stroke="none" 
	d="
M696.901001,190.444214 
	C698.089844,190.483887 698.883911,190.545761 699.714355,190.610474 
	C697.481018,198.964432 690.409668,203.325867 682.134583,201.435150 
	C681.099670,196.835907 683.938782,194.307983 687.492432,192.743271 
	C690.288940,191.511841 693.486755,191.191467 696.901001,190.444214 
z"/>
<path fill="#0CAB61" opacity="1.000000" stroke="none" 
	d="
M352.021545,126.013168 
	C343.503418,125.636101 339.344055,119.380501 340.436035,108.537003 
	C348.326447,111.187599 352.236603,116.091774 352.638794,123.733047 
	C352.947937,124.011909 352.998413,124.002083 352.623535,123.973022 
	C352.146851,124.637871 352.045044,125.331772 351.943268,126.025673 
	C351.943268,126.025673 352.005829,126.041321 352.021545,126.013168 
z"/>
<path fill="#08AA5F" opacity="1.000000" stroke="none" 
	d="
M673.651123,201.680298 
	C665.816772,204.096802 660.043396,201.116455 655.029419,192.493576 
	C664.770386,190.037781 672.649719,193.750244 673.651123,201.680298 
z"/>
<path fill="#0EAB61" opacity="1.000000" stroke="none" 
	d="
M676.572388,170.482803 
	C678.412292,173.052917 678.125244,174.582703 675.221497,175.453110 
	C669.825317,177.070572 665.567322,174.830399 661.605957,171.610413 
	C660.097229,170.384064 658.799744,168.897842 656.821960,166.956909 
	C664.275452,165.596222 670.810120,164.619370 676.572388,170.482803 
z"/>
<path fill="#0BAB60" opacity="1.000000" stroke="none" 
	d="
M340.674255,148.317444 
	C340.937164,150.419205 341.044800,152.192535 341.149750,153.921280 
	C333.092438,155.224869 328.059906,150.056137 326.576050,138.770584 
	C332.393188,140.558334 337.672699,142.277908 340.674255,148.317444 
z"/>
<path fill="#0EAB61" opacity="1.000000" stroke="none" 
	d="
M651.711914,133.491730 
	C649.454590,132.459763 647.548950,131.588837 645.485901,130.645996 
	C653.348938,124.437851 661.581116,124.242165 666.976685,129.901428 
	C664.173950,135.093475 660.694763,135.968658 651.711914,133.491730 
z"/>
<path fill="#0CAB61" opacity="1.000000" stroke="none" 
	d="
M336.951233,137.115112 
	C334.621704,132.582184 332.567291,128.297531 330.512878,124.012871 
	C331.084381,123.622482 331.655884,123.232094 332.227386,122.841705 
	C337.057770,124.575089 341.740082,126.800774 344.032196,131.846451 
	C344.940338,133.845566 344.343109,136.528534 344.431305,138.900146 
	C342.029663,138.387894 339.627991,137.875626 336.951233,137.115112 
z"/>
<path fill="#0CAB61" opacity="1.000000" stroke="none" 
	d="
M663.933716,110.326843 
	C663.688293,110.080566 663.761414,110.225716 663.793579,110.248459 
	C661.708557,102.529922 664.367981,97.025612 672.994812,92.125984 
	C672.994812,96.298805 673.484558,100.244431 672.870850,104.010231 
	C672.104553,108.712021 668.534851,111.006325 663.933716,110.326843 
z"/>
<path fill="#09AA5F" opacity="1.000000" stroke="none" 
	d="
M359.937256,110.522011 
	C359.937256,110.522011 359.695038,110.612694 359.719940,110.581894 
	C355.070984,112.271126 352.504547,109.073982 351.491333,105.740570 
	C350.214722,101.540588 350.392639,96.898491 350.673218,92.303970 
	C356.476898,96.386070 361.929962,100.315269 360.749451,108.625206 
	C360.945557,109.008110 361.000610,108.999741 360.619598,109.036415 
	C360.138153,109.556061 360.037689,110.039040 359.937256,110.522011 
z"/>
<path fill="#0AAB5F" opacity="1.000000" stroke="none" 
	d="
M376.035889,128.838287 
	C376.814789,129.543594 377.734741,130.473038 377.618591,130.628571 
	C373.764099,135.788696 361.386597,135.829987 356.589966,130.769836 
	C360.252350,124.738167 365.755127,124.142418 376.035889,128.838287 
z"/>
<path fill="#09AA5F" opacity="1.000000" stroke="none" 
	d="
M655.546753,97.911530 
	C655.805603,100.186218 655.894592,102.101959 655.982605,103.997597 
	C647.439331,104.603996 642.300476,98.602081 642.106140,88.054420 
	C647.561340,89.960976 652.608643,92.105614 655.546753,97.911530 
z"/>
<path fill="#0AAB5F" opacity="1.000000" stroke="none" 
	d="
M676.039185,157.049774 
	C678.222290,160.418655 675.367493,160.657333 673.771667,161.306061 
	C668.435730,163.475250 661.341431,160.627090 655.954712,154.142288 
	C663.065491,152.397339 669.938904,150.451904 676.039185,157.049774 
z"/>
<path fill="#0DAB61" opacity="1.000000" stroke="none" 
	d="
M339.664124,183.428680 
	C340.421661,186.664322 338.685669,187.150131 336.408203,187.226547 
	C330.515961,187.424225 325.219208,182.403046 322.701782,173.864716 
	C329.653503,174.829636 336.438110,175.457504 339.664124,183.428680 
z"/>
<path fill="#07AA5E" opacity="1.000000" stroke="none" 
	d="
M324.548462,162.472809 
	C323.748230,160.644760 323.145905,159.121506 322.513855,157.523087 
	C329.167877,156.851013 336.455688,160.510345 338.289978,165.536011 
	C338.804352,166.945343 338.986542,168.969437 338.319214,170.140732 
	C337.884033,170.904541 335.579956,170.999954 334.219727,170.768372 
	C329.569946,169.976700 326.743988,166.821335 324.548462,162.472809 
z"/>
<path fill="#0AAB5F" opacity="1.000000" stroke="none" 
	d="
M682.931396,184.048584 
	C688.441406,176.380707 692.972046,173.913788 700.810852,174.337097 
	C698.372070,182.447250 693.185608,187.476791 687.200867,187.052353 
	C685.965698,186.964737 684.842590,185.298309 683.330322,184.185852 
	C682.992798,184.012131 682.937927,184.021271 682.931396,184.048584 
z"/>
<path fill="#0AAB5F" opacity="1.000000" stroke="none" 
	d="
M692.171631,159.048035 
	C695.172974,158.145538 697.820312,157.359482 700.709473,156.501602 
	C699.306702,166.346191 693.102844,171.728317 685.070801,170.404434 
	C683.811218,164.564911 687.325012,161.580566 692.171631,159.048035 
z"/>
<path fill="#0DAB61" opacity="1.000000" stroke="none" 
	d="
M691.693359,140.547958 
	C693.547791,139.875778 695.066040,139.391296 697.153442,138.725204 
	C696.197571,144.967560 694.795471,150.371658 689.273743,153.246338 
	C687.509033,154.165085 685.005188,153.664200 682.839478,153.812866 
	C683.021301,151.604492 682.417175,148.783096 683.556885,147.321884 
	C685.605042,144.695892 688.699829,142.886337 691.693359,140.547958 
z"/>
<path fill="#0AAB5F" opacity="1.000000" stroke="none" 
	d="
M353.631348,175.867706 
	C350.749207,175.502045 348.265808,175.078705 345.695923,174.640625 
	C347.994019,166.660416 355.650970,164.036514 366.120300,167.201233 
	C363.001373,171.616852 359.019379,174.379776 353.631348,175.867706 
z"/>
<path fill="#08AA5F" opacity="1.000000" stroke="none" 
	d="
M662.715881,185.374939 
	C660.646423,183.025070 658.840576,180.931412 656.841431,178.613708 
	C668.229004,176.819427 674.357849,179.654175 676.633362,187.682999 
	C671.547363,190.500809 667.163330,188.844269 662.715881,185.374939 
z"/>
<path fill="#0BAB60" opacity="1.000000" stroke="none" 
	d="
M350.358887,181.285522 
	C355.637482,179.681946 360.623077,178.314606 366.474304,176.709854 
	C362.821167,186.833267 354.211945,191.112000 346.415924,187.194305 
	C347.659393,185.261841 348.862640,183.391800 350.358887,181.285522 
z"/>
<path fill="#EE3B3D" opacity="1.000000" stroke="none" 
	d="
M790.052612,299.694183 
	C788.469482,301.169189 787.244995,302.857361 785.657898,303.331390 
	C783.843323,303.873383 781.706177,303.335724 779.709229,303.267212 
	C779.858582,300.976746 779.718567,298.611511 780.283142,296.428436 
	C780.552246,295.387878 782.038635,294.265625 783.189819,293.936432 
	C785.265564,293.342773 787.504028,293.317688 789.674500,293.055145 
	C789.866699,295.160431 790.058899,297.265717 790.052612,299.694183 
z"/>
<path fill="#48489A" opacity="1.000000" stroke="none" 
	d="
M629.191833,209.108612 
	C629.829834,206.635696 630.056946,203.887650 631.547729,202.578445 
	C632.580322,201.671616 635.810913,202.118042 637.212036,203.131424 
	C638.407654,203.996231 639.057922,206.637665 638.789062,208.306183 
	C638.082397,212.691116 633.288696,213.180710 629.191833,209.108612 
z"/>
<path fill="#49499A" opacity="1.000000" stroke="none" 
	d="
M388.625183,202.922150 
	C391.299377,203.009506 394.093658,202.698868 395.888062,203.891998 
	C396.898315,204.563751 397.038208,208.217209 396.142670,209.608734 
	C395.258545,210.982529 392.495422,211.957123 390.698822,211.766495 
	C386.859314,211.359100 386.041077,207.817398 388.625183,202.922150 
z"/>
<path fill="#625FA8" opacity="1.000000" stroke="none" 
	d="
M325.567322,239.096649 
	C326.031067,239.523117 326.032959,239.881989 326.036560,240.510040 
	C321.642426,240.791733 317.246582,240.804230 312.467407,240.512878 
	C312.077393,239.863022 312.070618,239.517029 312.063873,239.171051 
	C316.411041,239.123718 320.758240,239.076401 325.567322,239.096649 
z"/>
<path fill="#625FA8" opacity="1.000000" stroke="none" 
	d="
M702.396484,240.869400 
	C701.964294,240.424774 701.966492,240.069489 701.968262,239.447723 
	C705.990784,239.128922 710.013672,239.076599 714.500732,239.344543 
	C714.947083,240.015808 714.929138,240.366806 714.911133,240.717773 
	C710.884338,240.798096 706.857605,240.878418 702.396484,240.869400 
z"/>
<path fill="#8F89C1" opacity="1.000000" stroke="none" 
	d="
M311.602661,239.102539 
	C312.070618,239.517029 312.077393,239.863022 312.089752,240.468445 
	C308.003296,240.727890 303.911255,240.727890 299.819183,240.727890 
	C299.824921,240.163269 299.830658,239.598663 299.836395,239.034042 
	C303.604767,239.034042 307.373108,239.034042 311.602661,239.102539 
z"/>
<path fill="#8C85BF" opacity="1.000000" stroke="none" 
	d="
M715.367554,240.823608 
	C714.929138,240.366806 714.947083,240.015808 714.958130,239.401291 
	C718.845398,239.137756 722.739441,239.137756 726.633545,239.137756 
	C726.669189,239.734970 726.704834,240.332199 726.740479,240.929413 
	C723.101685,240.929413 719.462830,240.929413 715.367554,240.823608 
z"/>
<path fill="#EF3C3E" opacity="1.000000" stroke="none" 
	d="
M550.979248,292.965179 
	C550.986084,292.948700 551.151917,292.914429 551.151917,292.914429 
	C551.151917,292.914429 550.942566,292.843018 550.947021,292.914001 
	C550.951477,292.985016 550.972412,292.981659 550.979248,292.965179 
z"/>
<path fill="#FEFAF7" opacity="1.000000" stroke="none" 
	d="
M118.153694,307.152191 
	C118.916153,307.117371 119.844826,307.379456 119.826942,307.494995 
	C118.940903,313.218140 117.973671,318.928741 116.989182,324.796692 
	C113.476952,324.796692 110.185944,324.796692 105.338684,324.796692 
	C109.867081,318.507324 113.872696,312.944031 118.153694,307.152191 
z"/>
<path fill="#FFFBF9" opacity="1.000000" stroke="none" 
	d="
M309.839783,324.063904 
	C312.817352,314.946136 314.514526,313.923676 327.370087,313.592072 
	C326.140869,321.496216 325.607727,329.489746 323.326019,336.948303 
	C322.595734,339.335449 317.358765,341.225403 313.963013,341.674866 
	C310.358124,342.151947 308.493896,338.625580 308.477936,335.256348 
	C308.460938,331.660248 309.293182,328.060120 309.839783,324.063904 
z"/>
<path fill="#FFFCFA" opacity="1.000000" stroke="none" 
	d="
M361.231567,340.780090 
	C361.226074,335.957764 361.320343,331.401123 361.835663,326.892609 
	C363.300964,314.072357 364.655182,312.912781 378.948242,314.321075 
	C377.855896,321.475861 376.975311,328.655457 375.603455,335.739899 
	C374.668976,340.565826 367.803741,342.968628 361.231567,340.780090 
z"/>
<path fill="#FFFCFB" opacity="1.000000" stroke="none" 
	d="
M206.022186,331.100342 
	C206.662720,327.416168 207.428818,324.179565 207.829712,320.898376 
	C208.452377,315.802063 211.371155,313.749878 216.263184,313.879547 
	C218.717880,313.944611 221.175720,313.890900 224.037308,313.890900 
	C222.867111,321.534546 221.969910,328.724457 220.605881,335.824615 
	C219.736938,340.347717 210.676666,343.827057 206.997681,341.123596 
	C205.927795,340.337402 205.349915,338.388763 205.237061,336.919952 
	C205.101242,335.152191 205.702133,333.327820 206.022186,331.100342 
z"/>
<path fill="#FFFCFA" opacity="1.000000" stroke="none" 
	d="
M715.968994,326.867432 
	C715.599609,329.431488 715.081482,331.551453 714.969727,333.692627 
	C714.780151,337.326813 712.866089,339.875885 709.630493,340.684387 
	C706.744873,341.405365 703.197815,341.833893 700.692810,340.713867 
	C699.470215,340.167236 699.543518,335.764648 699.763245,333.169495 
	C700.111572,329.055634 701.272705,325.015778 701.728516,320.904572 
	C702.302734,315.724640 705.239319,313.765533 710.114258,313.879272 
	C712.581360,313.936859 715.050903,313.889313 717.897644,313.889313 
	C717.224365,318.346832 716.613708,322.389832 715.968994,326.867432 
z"/>
<path fill="#FFFCFB" opacity="1.000000" stroke="none" 
	d="
M919.434692,340.704590 
	C918.120056,341.177155 917.187866,341.580872 916.214233,341.762909 
	C910.490906,342.832977 908.309875,341.014984 908.982422,335.311279 
	C909.565125,330.368988 910.666443,325.490082 911.421143,320.565186 
	C912.155396,315.773254 914.972839,313.741943 919.669006,313.878967 
	C922.117981,313.950409 924.570801,313.891602 927.588013,313.891602 
	C926.323853,321.896118 925.357300,329.290253 923.843628,336.570618 
	C923.524475,338.105560 921.199097,339.223328 919.434692,340.704590 
z"/>
<path fill="#FFFCFB" opacity="1.000000" stroke="none" 
	d="
M820.117554,314.637207 
	C823.924072,314.135040 827.345459,313.800598 831.748230,313.370239 
	C830.128540,323.340851 828.809204,332.472931 827.009460,341.509369 
	C826.721802,342.953705 824.443726,344.654480 822.803650,345.041718 
	C819.302917,345.868347 815.617249,345.911591 811.246338,346.352570 
	C812.786926,336.892151 814.040222,328.098328 815.786377,319.403473 
	C816.133240,317.676117 818.368164,316.327942 820.117554,314.637207 
z"/>
<path fill="#FEF9F6" opacity="1.000000" stroke="none" 
	d="
M577.240784,332.683044 
	C574.902405,333.367859 573.546021,333.215698 573.980957,330.586487 
	C574.768066,325.829315 574.943970,320.878510 576.466064,316.377533 
	C577.145386,314.368896 580.319702,312.570435 582.661621,312.064148 
	C583.622009,311.856506 586.279846,315.163940 586.604736,317.130280 
	C587.788757,324.295929 584.590210,329.313995 577.240784,332.683044 
z"/>
<path fill="#FFFFFF" opacity="1.000000" stroke="none" 
	d="
M352.367920,126.046600 
	C352.045044,125.331772 352.146851,124.637871 352.609680,123.951080 
	C352.911377,124.661293 352.851990,125.364410 352.367920,126.046600 
z"/>
<path fill="#FFFFFF" opacity="1.000000" stroke="none" 
	d="
M349.668579,142.032349 
	C350.115845,142.453964 350.187836,142.930542 350.159851,143.836472 
	C349.804352,143.539642 349.548828,142.813477 349.668579,142.032349 
z"/>
<path fill="#FFFFFF" opacity="1.000000" stroke="none" 
	d="
M360.439636,110.588669 
	C360.037689,110.039040 360.138153,109.556061 360.609558,109.010300 
	C360.967682,109.516777 360.954834,110.086044 360.439636,110.588669 
z"/>
</svg>